#N canvas 844 28 828 991 10;
#X floatatom 438 49 5 1 100 3 Modulus-A - #0-modA, f 5;
#X floatatom 505 49 5 1 100 3 Modulus-B - #0-modB, f 5;
#X obj 759 149 *;
#X obj 759 110 t b f;
#X floatatom 759 177 5 0 0 1 Period - #0-period, f 5;
#X obj 56 248 r \$0-period;
#X floatatom 191 110 5 0 100 3 index1 - #0-i1, f 5;
#X floatatom 236 110 5 0 100 3 index2 - #0-i2, f 5;
#X obj 90 294 r \$0-i1;
#X obj 74 271 r \$0-modA;
#X obj 693 108 r \$0-modA;
#X obj 758 87 r \$0-modB;
#N canvas 424 282 412 760 term_1 0;
#X obj 195 275 sel 1;
#X obj 313 255 +, f 1;
#X obj 283 255 f, f 1;
#X obj 379 334 list;
#X obj 289 306 list prepend;
#X obj 283 278 t f f, f 6;
#X obj 241 397 list;
#X obj 188 213 -;
#X obj 196 252 <= 100;
#X obj 252 168 t b b f b;
#X obj 302 76 t b f;
#X obj 254 135 t f f;
#X obj 177 161 t b f;
#X obj 132 44 inlet;
#X obj 256 44 inlet;
#X obj 315 44 inlet;
#X obj 241 460 outlet;
#X text 246 25 Modulus;
#X text 314 25 Index;
#X text 129 25 Period;
#X text 41 260 stop iterating at period;
#X text 378 307 compile list;
#X obj 133 68 t b f;
#X text 272 398 residual class;
#X obj 417 44 inlet;
#X obj 247 219 sel 0;
#N canvas 564 282 552 760 complement 0;
#X obj 133 74 inlet;
#X obj 416 84 inlet;
#X obj 145 241 f;
#X obj 183 241 + 1;
#X obj 106 354 select;
#X msg 182 139 0, f 2;
#X obj 155 455 list;
#X obj 401 255 list split 1;
#X obj 155 484 list split 1;
#X obj 185 388 list append;
#X obj 432 306 list;
#X obj 361 281 t b f;
#X obj 486 203 b;
#X obj 184 293 t f f;
#X obj 181 171 t f b;
#X obj 307 409 list;
#X obj 173 544 list;
#X obj 402 182 list;
#X obj 379 322 del;
#X obj 129 747 outlet;
#X obj 248 69 inlet;
#X obj 177 266 sel 1;
#X text 65 54 complement is selected;
#X text 65 38 Trigger calculation if;
#X text 246 50 period;
#X text 394 53 Recieve list to;
#X text 394 67 calculate complement;
#X obj 130 720 list;
#X obj 175 569 t l b;
#X obj 77 600 list split 1;
#X obj 227 707 list;
#X obj 162 630 list;
#X obj 78 625 t b f;
#X obj 148 684 list append;
#X obj 225 169 + 1;
#X obj 238 141 f;
#X obj 182 107 t b b;
#X text 47 527 When done;
#X obj 184 415 t b l l;
#X obj 108 526 b;
#X text 249 167 send period;
#X text 249 181 to iterator;
#X text 69 258 0 to period;
#X text 8 341 Bang if;
#X text 8 358 number in list;
#X text 42 473 if number in list;
#X text 10 486 remove number from list;
#X text 21 241 iterate numbers from;
#X text 292 231 Send list to;
#X text 292 245 reject numbers;
#X text 292 259 that are in list;
#X text 213 646 Reorganize list into ascending and output;
#X connect 0 0 36 0;
#X connect 1 0 17 1;
#X connect 2 0 3 0;
#X connect 2 0 21 0;
#X connect 3 0 2 1;
#X connect 4 0 6 0;
#X connect 5 0 14 0;
#X connect 6 0 8 0;
#X connect 7 0 11 0;
#X connect 7 1 10 1;
#X connect 7 2 12 0;
#X connect 8 1 15 0;
#X connect 9 0 38 0;
#X connect 10 0 7 0;
#X connect 11 0 18 0;
#X connect 11 1 4 0;
#X connect 12 0 2 0;
#X connect 13 0 9 0;
#X connect 13 1 4 1;
#X connect 14 0 2 0;
#X connect 14 1 9 1;
#X connect 15 0 9 1;
#X connect 15 0 16 1;
#X connect 16 0 28 0;
#X connect 17 0 7 0;
#X connect 18 0 10 0;
#X connect 20 0 35 1;
#X connect 21 0 39 0;
#X connect 21 1 13 0;
#X connect 27 0 19 0;
#X connect 28 0 29 0;
#X connect 28 1 33 1;
#X connect 29 0 32 0;
#X connect 29 1 31 1;
#X connect 29 2 27 0;
#X connect 30 0 33 1;
#X connect 31 0 29 0;
#X connect 32 0 31 0;
#X connect 32 1 33 0;
#X connect 33 0 27 1;
#X connect 33 0 30 0;
#X connect 34 0 21 1;
#X connect 35 0 34 0;
#X connect 36 0 5 0;
#X connect 36 1 35 0;
#X connect 38 0 17 0;
#X connect 38 1 6 1;
#X connect 38 2 15 0;
#X connect 39 0 16 0;
#X restore 119 408 pd complement;
#X text 18 407 complement class;
#X obj 185 93 del 1;
#X obj 178 381 list;
#X text 417 25 Complement;
#X obj 395 80 t b f;
#X obj 247 195 f 0;
#X text 341 241 iterate residual class;
#X obj 255 114 f 1;
#X obj 152 188 f 1;
#X obj 292 228 f 0;
#X obj 398 154 outlet;
#X connect 0 0 2 0;
#X connect 1 0 2 1;
#X connect 2 0 1 0;
#X connect 2 0 5 0;
#X connect 3 0 4 1;
#X connect 4 0 3 0;
#X connect 4 0 6 1;
#X connect 4 0 29 0;
#X connect 5 0 8 0;
#X connect 5 1 4 0;
#X connect 6 0 16 0;
#X connect 7 0 8 1;
#X connect 8 0 0 0;
#X connect 9 0 32 0;
#X connect 9 1 36 0;
#X connect 9 2 1 1;
#X connect 9 3 4 1;
#X connect 10 0 37 0;
#X connect 10 1 36 1;
#X connect 11 0 9 0;
#X connect 11 1 12 0;
#X connect 12 0 35 0;
#X connect 12 1 7 1;
#X connect 13 0 22 0;
#X connect 14 0 34 1;
#X connect 15 0 10 0;
#X connect 22 0 28 0;
#X connect 22 1 35 0;
#X connect 24 0 31 0;
#X connect 25 0 6 0;
#X connect 25 1 26 0;
#X connect 26 0 16 0;
#X connect 28 0 34 0;
#X connect 29 0 26 2;
#X connect 31 0 37 0;
#X connect 31 1 25 1;
#X connect 32 0 25 0;
#X connect 34 0 11 0;
#X connect 35 0 7 0;
#X connect 35 0 26 1;
#X connect 36 0 2 0;
#X restore 56 337 pd term_1;
#X obj 191 145 tgl 15 0 empty empty empty 17 7 0 10 -262144 -1 -1 0
1;
#X obj 224 251 r \$0-period;
#N canvas 564 230 552 789 term_2 0;
#X obj 195 275 sel 1;
#X obj 313 255 +, f 1;
#X obj 283 255 f, f 1;
#X obj 379 334 list;
#X obj 289 306 list prepend;
#X obj 283 278 t f f, f 6;
#X obj 241 397 list;
#X obj 188 213 -;
#X obj 196 252 <= 100;
#X obj 252 168 t b b f b;
#X obj 302 76 t b f;
#X obj 254 135 t f f;
#X obj 177 161 t b f;
#X obj 132 44 inlet;
#X obj 256 44 inlet;
#X obj 315 44 inlet;
#X obj 241 460 outlet;
#X text 246 25 Modulus;
#X text 314 25 Index;
#X text 129 25 Period;
#X text 41 260 stop iterating at period;
#X text 378 307 compile list;
#X obj 133 68 t b f;
#X text 272 398 residual class;
#X obj 417 44 inlet;
#X obj 247 219 sel 0;
#N canvas 1124 230 548 789 complement 0;
#X obj 133 74 inlet;
#X obj 416 84 inlet;
#X obj 145 241 f;
#X obj 183 241 + 1;
#X obj 106 354 select;
#X msg 182 139 0, f 2;
#X obj 155 455 list;
#X obj 401 255 list split 1;
#X obj 155 484 list split 1;
#X obj 185 388 list append;
#X obj 432 306 list;
#X obj 361 281 t b f;
#X obj 486 203 b;
#X obj 184 293 t f f;
#X obj 181 171 t f b;
#X obj 307 409 list;
#X obj 173 544 list;
#X obj 402 182 list;
#X obj 379 322 del;
#X obj 129 747 outlet;
#X obj 248 69 inlet;
#X obj 177 266 sel 1;
#X text 65 54 complement is selected;
#X text 65 38 Trigger calculation if;
#X text 246 50 period;
#X text 394 53 Recieve list to;
#X text 394 67 calculate complement;
#X obj 130 720 list;
#X obj 175 569 t l b;
#X obj 77 600 list split 1;
#X obj 227 707 list;
#X obj 162 630 list;
#X obj 78 625 t b f;
#X obj 148 684 list append;
#X obj 225 169 + 1;
#X obj 238 141 f;
#X obj 182 107 t b b;
#X text 47 527 When done;
#X obj 184 415 t b l l;
#X obj 108 526 b;
#X text 249 167 send period;
#X text 249 181 to iterator;
#X text 69 258 0 to period;
#X text 8 341 Bang if;
#X text 8 358 number in list;
#X text 42 473 if number in list;
#X text 10 486 remove number from list;
#X text 21 241 iterate numbers from;
#X text 292 231 Send list to;
#X text 292 245 reject numbers;
#X text 292 259 that are in list;
#X text 213 646 Reorganize list into ascending and output;
#X connect 0 0 36 0;
#X connect 1 0 17 1;
#X connect 2 0 3 0;
#X connect 2 0 21 0;
#X connect 3 0 2 1;
#X connect 4 0 6 0;
#X connect 5 0 14 0;
#X connect 6 0 8 0;
#X connect 7 0 11 0;
#X connect 7 1 10 1;
#X connect 7 2 12 0;
#X connect 8 1 15 0;
#X connect 9 0 38 0;
#X connect 10 0 7 0;
#X connect 11 0 18 0;
#X connect 11 1 4 0;
#X connect 12 0 2 0;
#X connect 13 0 9 0;
#X connect 13 1 4 1;
#X connect 14 0 2 0;
#X connect 14 1 9 1;
#X connect 15 0 9 1;
#X connect 15 0 16 1;
#X connect 16 0 28 0;
#X connect 17 0 7 0;
#X connect 18 0 10 0;
#X connect 20 0 35 1;
#X connect 21 0 39 0;
#X connect 21 1 13 0;
#X connect 27 0 19 0;
#X connect 28 0 29 0;
#X connect 28 1 33 1;
#X connect 29 0 32 0;
#X connect 29 1 31 1;
#X connect 29 2 27 0;
#X connect 30 0 33 1;
#X connect 31 0 29 0;
#X connect 32 0 31 0;
#X connect 32 1 33 0;
#X connect 33 0 27 1;
#X connect 33 0 30 0;
#X connect 34 0 21 1;
#X connect 35 0 34 0;
#X connect 36 0 5 0;
#X connect 36 1 35 0;
#X connect 38 0 17 0;
#X connect 38 1 6 1;
#X connect 38 2 15 0;
#X connect 39 0 16 0;
#X restore 119 408 pd complement;
#X text 18 407 complement class;
#X obj 185 93 del 1;
#X obj 178 381 list;
#X text 417 25 Complement;
#X obj 395 80 t b f;
#X obj 247 195 f 0;
#X text 341 241 iterate residual class;
#X obj 255 114 f 1;
#X obj 152 188 f 1;
#X obj 292 228 f 0;
#X obj 399 148 outlet;
#X connect 0 0 2 0;
#X connect 1 0 2 1;
#X connect 2 0 1 0;
#X connect 2 0 5 0;
#X connect 3 0 4 1;
#X connect 4 0 3 0;
#X connect 4 0 6 1;
#X connect 4 0 29 0;
#X connect 5 0 8 0;
#X connect 5 1 4 0;
#X connect 6 0 16 0;
#X connect 7 0 8 1;
#X connect 8 0 0 0;
#X connect 9 0 32 0;
#X connect 9 1 36 0;
#X connect 9 2 1 1;
#X connect 9 3 4 1;
#X connect 10 0 37 0;
#X connect 10 1 36 1;
#X connect 11 0 9 0;
#X connect 11 1 12 0;
#X connect 12 0 35 0;
#X connect 12 1 7 1;
#X connect 13 0 22 0;
#X connect 14 0 34 1;
#X connect 15 0 10 0;
#X connect 22 0 28 0;
#X connect 22 1 35 0;
#X connect 24 0 31 0;
#X connect 25 0 6 0;
#X connect 25 1 26 0;
#X connect 26 0 16 0;
#X connect 28 0 34 0;
#X connect 29 0 26 2;
#X connect 31 0 37 0;
#X connect 31 1 25 1;
#X connect 32 0 25 0;
#X connect 34 0 11 0;
#X connect 35 0 7 0;
#X connect 35 0 26 1;
#X connect 36 0 2 0;
#X restore 224 337 pd term_2;
#X obj 242 274 r \$0-modB;
#X obj 258 298 r \$0-i2;
#N canvas 8 861 1664 181 intersection 0;
#X obj 154 37 inlet;
#X obj 346 37 inlet;
#X obj 529 37 inlet;
#X text 529 19 Complement;
#X text 154 19 Term 1;
#X text 346 19 Term 2;
#X obj 151 280 list split 1;
#X obj 182 331 list;
#X obj 152 207 list;
#X obj 129 347 del;
#X obj 342 241 list split 1;
#X obj 370 328 list;
#X obj 299 273 t b f;
#X obj 343 200 list;
#X obj 352 664 outlet;
#X obj 237 388 select;
#X obj 203 418 f;
#X obj 111 306 t b f f;
#X obj 278 125 + 1;
#X msg 275 76 0, f 2;
#X obj 250 153 select 1;
#X obj 230 125 f 0;
#X obj 350 75 t b l;
#X obj 154 74 t b l;
#X obj 301 493 list;
#X obj 349 534 list;
#X obj 205 465 list prepend;
#X obj 391 400 t b b;
#X text 217 179 trigger when;
#X text 206 195 both terms update;
#X text 351 219 iterate through term 2;
#X text 16 248 iterate through term 1;
#X text 234 408 bang if an;
#X text 234 421 element matches;
#N canvas 844 230 412 812 complement 0;
#X obj 133 74 inlet;
#X obj 416 84 inlet;
#X obj 145 241 f;
#X obj 183 241 + 1;
#X obj 106 354 select;
#X msg 182 139 0, f 2;
#X obj 155 455 list;
#X obj 401 255 list split 1;
#X obj 155 484 list split 1;
#X obj 185 388 list append;
#X obj 432 306 list;
#X obj 361 281 t b f;
#X obj 486 203 b;
#X obj 184 293 t f f;
#X obj 181 171 t f b;
#X obj 307 409 list;
#X obj 173 544 list;
#X obj 402 182 list;
#X obj 379 322 del;
#X obj 129 747 outlet;
#X obj 248 69 inlet;
#X obj 177 266 sel 1;
#X text 65 54 complement is selected;
#X text 65 38 Trigger calculation if;
#X text 246 50 period;
#X text 394 53 Recieve list to;
#X text 394 67 calculate complement;
#X obj 130 720 list;
#X obj 175 569 t l b;
#X obj 77 600 list split 1;
#X obj 227 707 list;
#X obj 162 630 list;
#X obj 78 625 t b f;
#X obj 148 684 list append;
#X obj 225 169 + 1;
#X obj 238 141 f;
#X obj 182 107 t b b;
#X text 47 527 When done;
#X obj 184 415 t b l l;
#X obj 108 526 b;
#X text 249 167 send period;
#X text 249 181 to iterator;
#X text 69 258 0 to period;
#X text 8 341 Bang if;
#X text 8 358 number in list;
#X text 42 473 if number in list;
#X text 10 486 remove number from list;
#X text 21 241 iterate numbers from;
#X text 292 231 Send list to;
#X text 292 245 reject numbers;
#X text 292 259 that are in list;
#X text 213 646 Reorganize list into ascending and output;
#X connect 0 0 36 0;
#X connect 1 0 17 1;
#X connect 2 0 3 0;
#X connect 2 0 21 0;
#X connect 3 0 2 1;
#X connect 4 0 6 0;
#X connect 5 0 14 0;
#X connect 6 0 8 0;
#X connect 7 0 11 0;
#X connect 7 1 10 1;
#X connect 7 2 12 0;
#X connect 8 1 15 0;
#X connect 9 0 38 0;
#X connect 10 0 7 0;
#X connect 11 0 18 0;
#X connect 11 1 4 0;
#X connect 12 0 2 0;
#X connect 13 0 9 0;
#X connect 13 1 4 1;
#X connect 14 0 2 0;
#X connect 14 1 9 1;
#X connect 15 0 9 1;
#X connect 15 0 16 1;
#X connect 16 0 28 0;
#X connect 17 0 7 0;
#X connect 18 0 10 0;
#X connect 20 0 35 1;
#X connect 21 0 39 0;
#X connect 21 1 13 0;
#X connect 27 0 19 0;
#X connect 28 0 29 0;
#X connect 28 1 33 1;
#X connect 29 0 32 0;
#X connect 29 1 31 1;
#X connect 29 2 27 0;
#X connect 30 0 33 1;
#X connect 31 0 29 0;
#X connect 32 0 31 0;
#X connect 32 1 33 0;
#X connect 33 0 27 1;
#X connect 33 0 30 0;
#X connect 34 0 21 1;
#X connect 35 0 34 0;
#X connect 36 0 5 0;
#X connect 36 1 35 0;
#X connect 38 0 17 0;
#X connect 38 1 6 1;
#X connect 38 2 15 0;
#X connect 39 0 16 0;
#X restore 463 607 pd complement;
#X obj 576 311 outlet;
#X obj 418 459 sel 0;
#X obj 418 435 f 0;
#X obj 576 248 t b f;
#X obj 460 37 inlet;
#X text 460 20 Period;
#X connect 0 0 23 0;
#X connect 1 0 22 0;
#X connect 2 0 38 0;
#X connect 6 0 17 0;
#X connect 6 1 7 1;
#X connect 6 2 11 0;
#X connect 7 0 6 0;
#X connect 8 0 6 0;
#X connect 9 0 7 0;
#X connect 10 0 12 0;
#X connect 10 1 11 1;
#X connect 10 2 27 0;
#X connect 11 0 10 0;
#X connect 12 0 8 0;
#X connect 12 1 15 1;
#X connect 13 0 10 0;
#X connect 15 0 16 0;
#X connect 16 0 26 0;
#X connect 17 0 9 0;
#X connect 17 1 15 0;
#X connect 17 2 16 1;
#X connect 18 0 21 1;
#X connect 19 0 21 1;
#X connect 20 0 19 0;
#X connect 20 0 13 0;
#X connect 21 0 18 0;
#X connect 21 0 20 0;
#X connect 22 0 21 0;
#X connect 22 1 13 1;
#X connect 23 0 21 0;
#X connect 23 1 8 1;
#X connect 24 0 25 1;
#X connect 24 0 26 1;
#X connect 25 0 14 0;
#X connect 25 0 34 2;
#X connect 26 0 24 0;
#X connect 27 0 26 1;
#X connect 27 1 37 0;
#X connect 34 0 14 0;
#X connect 36 0 25 0;
#X connect 36 1 34 0;
#X connect 37 0 36 0;
#X connect 38 0 35 0;
#X connect 38 1 37 1;
#X connect 39 0 34 1;
#X restore 181 459 pd intersection;
#X obj 315 430 tgl 15 0 empty \$0-ic1 empty 17 7 0 10 -262144 -1 -1
0 1;
#X obj 834 145 r \$0-update;
#X obj 106 360 s \$0-update;
#X obj 274 360 s \$0-update;
#X obj 267 482 s \$0-update;
#X obj 239 430 r \$0-period;
#X floatatom 290 110 5 0 100 3 index3 - #0-i3, f 5;
#X floatatom 335 110 5 0 100 3 index4 - #0-i4, f 5;
#X obj 423 247 r \$0-period;
#X obj 439 270 r \$0-modA;
#X obj 591 256 r \$0-period;
#X obj 608 275 r \$0-modB;
#N canvas 1124 230 548 812 intersection 0;
#X obj 154 37 inlet;
#X obj 346 37 inlet;
#X obj 529 37 inlet;
#X text 529 19 Complement;
#X text 154 19 Term 1;
#X text 346 19 Term 2;
#X obj 151 280 list split 1;
#X obj 182 331 list;
#X obj 152 207 list;
#X obj 129 347 del;
#X obj 342 241 list split 1;
#X obj 370 328 list;
#X obj 299 273 t b f;
#X obj 343 200 list;
#X obj 352 664 outlet;
#X obj 237 388 select;
#X obj 203 418 f;
#X obj 111 306 t b f f;
#X obj 278 125 + 1;
#X msg 275 76 0, f 2;
#X obj 250 153 select 1;
#X obj 230 125 f 0;
#X obj 350 75 t b l;
#X obj 154 74 t b l;
#X obj 301 493 list;
#X obj 349 534 list;
#X obj 205 465 list prepend;
#X obj 391 400 t b b;
#X text 217 179 trigger when;
#X text 206 195 both terms update;
#X text 351 219 iterate through term 2;
#X text 16 248 iterate through term 1;
#X text 234 408 bang if an;
#X text 234 421 element matches;
#N canvas 844 230 412 812 complement 0;
#X obj 133 74 inlet;
#X obj 416 84 inlet;
#X obj 145 241 f;
#X obj 183 241 + 1;
#X obj 106 354 select;
#X msg 182 139 0, f 2;
#X obj 155 455 list;
#X obj 401 255 list split 1;
#X obj 155 484 list split 1;
#X obj 185 388 list append;
#X obj 432 306 list;
#X obj 361 281 t b f;
#X obj 486 203 b;
#X obj 184 293 t f f;
#X obj 181 171 t f b;
#X obj 307 409 list;
#X obj 173 544 list;
#X obj 402 182 list;
#X obj 379 322 del;
#X obj 129 747 outlet;
#X obj 248 69 inlet;
#X obj 177 266 sel 1;
#X text 65 54 complement is selected;
#X text 65 38 Trigger calculation if;
#X text 246 50 period;
#X text 394 53 Recieve list to;
#X text 394 67 calculate complement;
#X obj 130 720 list;
#X obj 175 569 t l b;
#X obj 77 600 list split 1;
#X obj 227 707 list;
#X obj 162 630 list;
#X obj 78 625 t b f;
#X obj 148 684 list append;
#X obj 225 169 + 1;
#X obj 238 141 f;
#X obj 182 107 t b b;
#X text 47 527 When done;
#X obj 184 415 t b l l;
#X obj 108 526 b;
#X text 249 167 send period;
#X text 249 181 to iterator;
#X text 69 258 0 to period;
#X text 8 341 Bang if;
#X text 8 358 number in list;
#X text 42 473 if number in list;
#X text 10 486 remove number from list;
#X text 21 241 iterate numbers from;
#X text 292 231 Send list to;
#X text 292 245 reject numbers;
#X text 292 259 that are in list;
#X text 213 646 Reorganize list into ascending and output;
#X connect 0 0 36 0;
#X connect 1 0 17 1;
#X connect 2 0 3 0;
#X connect 2 0 21 0;
#X connect 3 0 2 1;
#X connect 4 0 6 0;
#X connect 5 0 14 0;
#X connect 6 0 8 0;
#X connect 7 0 11 0;
#X connect 7 1 10 1;
#X connect 7 2 12 0;
#X connect 8 1 15 0;
#X connect 9 0 38 0;
#X connect 10 0 7 0;
#X connect 11 0 18 0;
#X connect 11 1 4 0;
#X connect 12 0 2 0;
#X connect 13 0 9 0;
#X connect 13 1 4 1;
#X connect 14 0 2 0;
#X connect 14 1 9 1;
#X connect 15 0 9 1;
#X connect 15 0 16 1;
#X connect 16 0 28 0;
#X connect 17 0 7 0;
#X connect 18 0 10 0;
#X connect 20 0 35 1;
#X connect 21 0 39 0;
#X connect 21 1 13 0;
#X connect 27 0 19 0;
#X connect 28 0 29 0;
#X connect 28 1 33 1;
#X connect 29 0 32 0;
#X connect 29 1 31 1;
#X connect 29 2 27 0;
#X connect 30 0 33 1;
#X connect 31 0 29 0;
#X connect 32 0 31 0;
#X connect 32 1 33 0;
#X connect 33 0 27 1;
#X connect 33 0 30 0;
#X connect 34 0 21 1;
#X connect 35 0 34 0;
#X connect 36 0 5 0;
#X connect 36 1 35 0;
#X connect 38 0 17 0;
#X connect 38 1 6 1;
#X connect 38 2 15 0;
#X connect 39 0 16 0;
#X restore 463 607 pd complement;
#X obj 576 311 outlet;
#X obj 418 459 sel 0;
#X obj 418 435 f 0;
#X obj 576 248 t b f;
#X obj 460 37 inlet;
#X text 460 20 Period;
#X connect 0 0 23 0;
#X connect 1 0 22 0;
#X connect 2 0 38 0;
#X connect 6 0 17 0;
#X connect 6 1 7 1;
#X connect 6 2 11 0;
#X connect 7 0 6 0;
#X connect 8 0 6 0;
#X connect 9 0 7 0;
#X connect 10 0 12 0;
#X connect 10 1 11 1;
#X connect 10 2 27 0;
#X connect 11 0 10 0;
#X connect 12 0 8 0;
#X connect 12 1 15 1;
#X connect 13 0 10 0;
#X connect 15 0 16 0;
#X connect 16 0 26 0;
#X connect 17 0 9 0;
#X connect 17 1 15 0;
#X connect 17 2 16 1;
#X connect 18 0 21 1;
#X connect 19 0 21 1;
#X connect 20 0 19 0;
#X connect 20 0 13 0;
#X connect 21 0 18 0;
#X connect 21 0 20 0;
#X connect 22 0 21 0;
#X connect 22 1 13 1;
#X connect 23 0 21 0;
#X connect 23 1 8 1;
#X connect 24 0 25 1;
#X connect 24 0 26 1;
#X connect 25 0 14 0;
#X connect 25 0 34 2;
#X connect 26 0 24 0;
#X connect 27 0 26 1;
#X connect 27 1 37 0;
#X connect 34 0 14 0;
#X connect 36 0 25 0;
#X connect 36 1 34 0;
#X connect 37 0 36 0;
#X connect 38 0 35 0;
#X connect 38 1 37 1;
#X connect 39 0 34 1;
#X restore 548 456 pd intersection;
#X obj 682 427 tgl 15 0 empty \$0-ic2 empty 17 7 0 10 -262144 -1 -1
0 1;
#X obj 473 357 s \$0-update;
#X obj 641 357 s \$0-update;
#X obj 634 479 s \$0-update;
#X obj 606 427 r \$0-period;
#X obj 457 290 r \$0-i3;
#X obj 626 293 r \$0-i4;
#N canvas 564 230 552 789 term_4 0;
#X obj 195 275 sel 1;
#X obj 313 255 +, f 1;
#X obj 283 255 f, f 1;
#X obj 379 334 list;
#X obj 289 306 list prepend;
#X obj 283 278 t f f, f 6;
#X obj 241 397 list;
#X obj 188 213 -;
#X obj 196 252 <= 100;
#X obj 252 168 t b b f b;
#X obj 302 76 t b f;
#X obj 254 135 t f f;
#X obj 177 161 t b f;
#X obj 132 44 inlet;
#X obj 256 44 inlet;
#X obj 315 44 inlet;
#X obj 241 460 outlet;
#X text 246 25 Modulus;
#X text 314 25 Index;
#X text 129 25 Period;
#X text 41 260 stop iterating at period;
#X text 378 307 compile list;
#X obj 133 68 t b f;
#X text 272 398 residual class;
#X obj 417 44 inlet;
#X obj 247 219 sel 0;
#N canvas 1124 230 548 789 complement 0;
#X obj 133 74 inlet;
#X obj 416 84 inlet;
#X obj 145 241 f;
#X obj 183 241 + 1;
#X obj 106 354 select;
#X msg 182 139 0, f 2;
#X obj 155 455 list;
#X obj 401 255 list split 1;
#X obj 155 484 list split 1;
#X obj 185 388 list append;
#X obj 432 306 list;
#X obj 361 281 t b f;
#X obj 486 203 b;
#X obj 184 293 t f f;
#X obj 181 171 t f b;
#X obj 307 409 list;
#X obj 173 544 list;
#X obj 402 182 list;
#X obj 379 322 del;
#X obj 129 747 outlet;
#X obj 248 69 inlet;
#X obj 177 266 sel 1;
#X text 65 54 complement is selected;
#X text 65 38 Trigger calculation if;
#X text 246 50 period;
#X text 394 53 Recieve list to;
#X text 394 67 calculate complement;
#X obj 130 720 list;
#X obj 175 569 t l b;
#X obj 77 600 list split 1;
#X obj 227 707 list;
#X obj 162 630 list;
#X obj 78 625 t b f;
#X obj 148 684 list append;
#X obj 225 169 + 1;
#X obj 238 141 f;
#X obj 182 107 t b b;
#X text 47 527 When done;
#X obj 184 415 t b l l;
#X obj 108 526 b;
#X text 249 167 send period;
#X text 249 181 to iterator;
#X text 69 258 0 to period;
#X text 8 341 Bang if;
#X text 8 358 number in list;
#X text 42 473 if number in list;
#X text 10 486 remove number from list;
#X text 21 241 iterate numbers from;
#X text 292 231 Send list to;
#X text 292 245 reject numbers;
#X text 292 259 that are in list;
#X text 213 646 Reorganize list into ascending and output;
#X connect 0 0 36 0;
#X connect 1 0 17 1;
#X connect 2 0 3 0;
#X connect 2 0 21 0;
#X connect 3 0 2 1;
#X connect 4 0 6 0;
#X connect 5 0 14 0;
#X connect 6 0 8 0;
#X connect 7 0 11 0;
#X connect 7 1 10 1;
#X connect 7 2 12 0;
#X connect 8 1 15 0;
#X connect 9 0 38 0;
#X connect 10 0 7 0;
#X connect 11 0 18 0;
#X connect 11 1 4 0;
#X connect 12 0 2 0;
#X connect 13 0 9 0;
#X connect 13 1 4 1;
#X connect 14 0 2 0;
#X connect 14 1 9 1;
#X connect 15 0 9 1;
#X connect 15 0 16 1;
#X connect 16 0 28 0;
#X connect 17 0 7 0;
#X connect 18 0 10 0;
#X connect 20 0 35 1;
#X connect 21 0 39 0;
#X connect 21 1 13 0;
#X connect 27 0 19 0;
#X connect 28 0 29 0;
#X connect 28 1 33 1;
#X connect 29 0 32 0;
#X connect 29 1 31 1;
#X connect 29 2 27 0;
#X connect 30 0 33 1;
#X connect 31 0 29 0;
#X connect 32 0 31 0;
#X connect 32 1 33 0;
#X connect 33 0 27 1;
#X connect 33 0 30 0;
#X connect 34 0 21 1;
#X connect 35 0 34 0;
#X connect 36 0 5 0;
#X connect 36 1 35 0;
#X connect 38 0 17 0;
#X connect 38 1 6 1;
#X connect 38 2 15 0;
#X connect 39 0 16 0;
#X restore 119 408 pd complement;
#X text 18 407 complement class;
#X obj 185 93 del 1;
#X obj 178 381 list;
#X text 417 25 Complement;
#X obj 395 80 t b f;
#X obj 247 195 f 0;
#X text 341 241 iterate residual class;
#X obj 255 114 f 1;
#X obj 152 188 f 1;
#X obj 292 228 f 0;
#X obj 399 148 outlet;
#X connect 0 0 2 0;
#X connect 1 0 2 1;
#X connect 2 0 1 0;
#X connect 2 0 5 0;
#X connect 3 0 4 1;
#X connect 4 0 3 0;
#X connect 4 0 6 1;
#X connect 4 0 29 0;
#X connect 5 0 8 0;
#X connect 5 1 4 0;
#X connect 6 0 16 0;
#X connect 7 0 8 1;
#X connect 8 0 0 0;
#X connect 9 0 32 0;
#X connect 9 1 36 0;
#X connect 9 2 1 1;
#X connect 9 3 4 1;
#X connect 10 0 37 0;
#X connect 10 1 36 1;
#X connect 11 0 9 0;
#X connect 11 1 12 0;
#X connect 12 0 35 0;
#X connect 12 1 7 1;
#X connect 13 0 22 0;
#X connect 14 0 34 1;
#X connect 15 0 10 0;
#X connect 22 0 28 0;
#X connect 22 1 35 0;
#X connect 24 0 31 0;
#X connect 25 0 6 0;
#X connect 25 1 26 0;
#X connect 26 0 16 0;
#X connect 28 0 34 0;
#X connect 29 0 26 2;
#X connect 31 0 37 0;
#X connect 31 1 25 1;
#X connect 32 0 25 0;
#X connect 34 0 11 0;
#X connect 35 0 7 0;
#X connect 35 0 26 1;
#X connect 36 0 2 0;
#X restore 591 334 pd term_4;
#N canvas 8 196 1664 335 term_3 0;
#X obj 195 275 sel 1;
#X obj 313 255 +, f 1;
#X obj 283 255 f, f 1;
#X obj 379 334 list;
#X obj 289 306 list prepend;
#X obj 283 278 t f f, f 6;
#X obj 241 397 list;
#X obj 188 213 -;
#X obj 196 252 <= 100;
#X obj 252 168 t b b f b;
#X obj 302 76 t b f;
#X obj 254 135 t f f;
#X obj 177 161 t b f;
#X obj 132 44 inlet;
#X obj 256 44 inlet;
#X obj 315 44 inlet;
#X obj 241 460 outlet;
#X text 246 25 Modulus;
#X text 314 25 Index;
#X text 129 25 Period;
#X text 41 260 stop iterating at period;
#X text 378 307 compile list;
#X obj 133 68 t b f;
#X text 272 398 residual class;
#X obj 417 44 inlet;
#X obj 247 219 sel 0;
#N canvas 564 282 552 760 complement 0;
#X obj 133 74 inlet;
#X obj 416 84 inlet;
#X obj 145 241 f;
#X obj 183 241 + 1;
#X obj 106 354 select;
#X msg 182 139 0, f 2;
#X obj 155 455 list;
#X obj 401 255 list split 1;
#X obj 155 484 list split 1;
#X obj 185 388 list append;
#X obj 432 306 list;
#X obj 361 281 t b f;
#X obj 486 203 b;
#X obj 184 293 t f f;
#X obj 181 171 t f b;
#X obj 307 409 list;
#X obj 173 544 list;
#X obj 402 182 list;
#X obj 379 322 del;
#X obj 129 747 outlet;
#X obj 248 69 inlet;
#X obj 177 266 sel 1;
#X text 65 54 complement is selected;
#X text 65 38 Trigger calculation if;
#X text 246 50 period;
#X text 394 53 Recieve list to;
#X text 394 67 calculate complement;
#X obj 130 720 list;
#X obj 175 569 t l b;
#X obj 77 600 list split 1;
#X obj 227 707 list;
#X obj 162 630 list;
#X obj 78 625 t b f;
#X obj 148 684 list append;
#X obj 225 169 + 1;
#X obj 238 141 f;
#X obj 182 107 t b b;
#X text 47 527 When done;
#X obj 184 415 t b l l;
#X obj 108 526 b;
#X text 249 167 send period;
#X text 249 181 to iterator;
#X text 69 258 0 to period;
#X text 8 341 Bang if;
#X text 8 358 number in list;
#X text 42 473 if number in list;
#X text 10 486 remove number from list;
#X text 21 241 iterate numbers from;
#X text 292 231 Send list to;
#X text 292 245 reject numbers;
#X text 292 259 that are in list;
#X text 213 646 Reorganize list into ascending and output;
#X connect 0 0 36 0;
#X connect 1 0 17 1;
#X connect 2 0 3 0;
#X connect 2 0 21 0;
#X connect 3 0 2 1;
#X connect 4 0 6 0;
#X connect 5 0 14 0;
#X connect 6 0 8 0;
#X connect 7 0 11 0;
#X connect 7 1 10 1;
#X connect 7 2 12 0;
#X connect 8 1 15 0;
#X connect 9 0 38 0;
#X connect 10 0 7 0;
#X connect 11 0 18 0;
#X connect 11 1 4 0;
#X connect 12 0 2 0;
#X connect 13 0 9 0;
#X connect 13 1 4 1;
#X connect 14 0 2 0;
#X connect 14 1 9 1;
#X connect 15 0 9 1;
#X connect 15 0 16 1;
#X connect 16 0 28 0;
#X connect 17 0 7 0;
#X connect 18 0 10 0;
#X connect 20 0 35 1;
#X connect 21 0 39 0;
#X connect 21 1 13 0;
#X connect 27 0 19 0;
#X connect 28 0 29 0;
#X connect 28 1 33 1;
#X connect 29 0 32 0;
#X connect 29 1 31 1;
#X connect 29 2 27 0;
#X connect 30 0 33 1;
#X connect 31 0 29 0;
#X connect 32 0 31 0;
#X connect 32 1 33 0;
#X connect 33 0 27 1;
#X connect 33 0 30 0;
#X connect 34 0 21 1;
#X connect 35 0 34 0;
#X connect 36 0 5 0;
#X connect 36 1 35 0;
#X connect 38 0 17 0;
#X connect 38 1 6 1;
#X connect 38 2 15 0;
#X connect 39 0 16 0;
#X restore 119 408 pd complement;
#X text 18 407 complement class;
#X obj 185 93 del 1;
#X obj 178 381 list;
#X text 417 25 Complement;
#X obj 395 80 t b f;
#X obj 247 195 f 0;
#X text 341 241 iterate residual class;
#X obj 255 114 f 1;
#X obj 152 188 f 1;
#X obj 292 228 f 0;
#X obj 398 154 outlet;
#X connect 0 0 2 0;
#X connect 1 0 2 1;
#X connect 2 0 1 0;
#X connect 2 0 5 0;
#X connect 3 0 4 1;
#X connect 4 0 3 0;
#X connect 4 0 6 1;
#X connect 4 0 29 0;
#X connect 5 0 8 0;
#X connect 5 1 4 0;
#X connect 6 0 16 0;
#X connect 7 0 8 1;
#X connect 8 0 0 0;
#X connect 9 0 32 0;
#X connect 9 1 36 0;
#X connect 9 2 1 1;
#X connect 9 3 4 1;
#X connect 10 0 37 0;
#X connect 10 1 36 1;
#X connect 11 0 9 0;
#X connect 11 1 12 0;
#X connect 12 0 35 0;
#X connect 12 1 7 1;
#X connect 13 0 22 0;
#X connect 14 0 34 1;
#X connect 15 0 10 0;
#X connect 22 0 28 0;
#X connect 22 1 35 0;
#X connect 24 0 31 0;
#X connect 25 0 6 0;
#X connect 25 1 26 0;
#X connect 26 0 16 0;
#X connect 28 0 34 0;
#X connect 29 0 26 2;
#X connect 31 0 37 0;
#X connect 31 1 25 1;
#X connect 32 0 25 0;
#X connect 34 0 11 0;
#X connect 35 0 7 0;
#X connect 35 0 26 1;
#X connect 36 0 2 0;
#X restore 423 334 pd term_3;
#N canvas 8 711 1664 331 union 0;
#X obj 154 37 inlet;
#X obj 346 37 inlet;
#X text 154 19 Term 1;
#X text 346 19 Term 2;
#X obj 152 195 list;
#X obj 343 200 list;
#X obj 105 670 outlet;
#X obj 294 118 + 1;
#X msg 267 79 0, f 2;
#X obj 248 147 select 1;
#X obj 246 118 f 0;
#X obj 350 75 t b l;
#X obj 154 74 t b l;
#X text 229 200 trigger when;
#X text 218 216 both terms update;
#X obj 246 168 t b b b;
#N canvas 8 28 548 991 listsort 0;
#X msg 94 312 add2 \$1;
#X obj 94 357 textfile;
#X obj 129 159 list length;
#X msg 156 200 resize \$1;
#X obj 193 516 array set \$0-sort;
#X obj 193 365 list split;
#X obj 193 411 list;
#X obj 221 386 list split 1;
#X obj 193 344 array get \$0-sort;
#X obj 129 180 t f f;
#X obj 193 323 t b f;
#X msg 47 334 rewind \, bang \, clear;
#X obj 78 117 inlet;
#X obj 94 378 outlet;
#X obj 94 291 array min \$0-sort;
#X obj 95 269 until;
#X obj 95 248 f;
#X obj 220 453 list length;
#X msg 220 474 resize \$1;
#X obj 193 432 t l l;
#X obj 78 138 t b b l l;
#X obj 285 144 loadbang;
#X floatatom 333 211 5 0 0 0 - - -, f 5;
#X obj 285 181 random 10000;
#X obj 112 227 array set;
#X obj 220 494 array define \$1-sort;
#X msg 335 411 rename \$1-sort;
#X msg 236 240 symbol \$1-sort;
#X connect 0 0 1 0;
#X connect 1 0 13 0;
#X connect 2 0 9 0;
#X connect 3 0 25 0;
#X connect 5 0 6 0;
#X connect 5 1 7 0;
#X connect 6 0 19 0;
#X connect 7 1 6 1;
#X connect 8 0 5 0;
#X connect 9 0 16 1;
#X connect 9 1 3 0;
#X connect 10 0 8 0;
#X connect 10 1 5 1;
#X connect 11 0 1 0;
#X connect 12 0 20 0;
#X connect 14 0 0 0;
#X connect 14 1 10 0;
#X connect 15 0 14 0;
#X connect 16 0 15 0;
#X connect 17 0 18 0;
#X connect 18 0 25 0;
#X connect 19 0 4 0;
#X connect 19 1 17 0;
#X connect 20 0 11 0;
#X connect 20 1 16 0;
#X connect 20 2 24 0;
#X connect 20 3 2 0;
#X connect 21 0 23 0;
#X connect 22 0 26 0;
#X connect 22 0 27 0;
#X connect 23 0 22 0;
#X connect 26 0 25 0;
#X connect 27 0 24 2;
#X connect 27 0 14 2;
#X connect 27 0 8 2;
#X connect 27 0 4 2;
#X restore 236 322 pd listsort;
#X obj 236 294 list append;
#X obj 237 494 change;
#X obj 239 454 list store;
#X obj 239 388 until;
#X obj 239 410 f;
#X obj 269 410 + 1;
#X msg 239 432 get \$1 1;
#X obj 279 389 0;
#X obj 231 357 t b b b l;
#X obj 243 574 list;
#X obj 103 611 list;
#X obj 149 546 list prepend;
#X connect 0 0 12 0;
#X connect 1 0 11 0;
#X connect 4 0 17 0;
#X connect 5 0 17 1;
#X connect 7 0 10 1;
#X connect 8 0 10 1;
#X connect 9 0 15 0;
#X connect 10 0 7 0;
#X connect 10 0 9 0;
#X connect 11 0 10 0;
#X connect 11 1 5 1;
#X connect 12 0 10 0;
#X connect 12 1 4 1;
#X connect 15 0 4 0;
#X connect 15 1 5 0;
#X connect 15 2 8 0;
#X connect 16 0 25 0;
#X connect 17 0 16 0;
#X connect 18 0 28 0;
#X connect 19 0 18 0;
#X connect 19 1 20 1;
#X connect 20 0 21 0;
#X connect 21 0 23 0;
#X connect 21 0 22 0;
#X connect 22 0 21 1;
#X connect 23 0 19 0;
#X connect 24 0 21 1;
#X connect 25 0 27 0;
#X connect 25 0 28 1;
#X connect 25 1 20 0;
#X connect 25 2 24 0;
#X connect 25 3 19 1;
#X connect 26 0 27 1;
#X connect 26 0 28 1;
#X connect 27 0 6 0;
#X connect 28 0 26 0;
#X restore 379 568 pd union;
#X obj 832 62 loadbang;
#X obj 832 83 f 1;
#X obj 832 104 t f f;
#X obj 796 245 r \$0-period;
#X obj 815 267 r \$0-modA;
#X obj 964 244 r \$0-period;
#X obj 983 265 r \$0-modB;
#N canvas 8 861 1664 181 intersection 0;
#X obj 154 37 inlet;
#X obj 346 37 inlet;
#X obj 529 37 inlet;
#X text 529 19 Complement;
#X text 154 19 Term 1;
#X text 346 19 Term 2;
#X obj 151 280 list split 1;
#X obj 182 331 list;
#X obj 152 207 list;
#X obj 129 347 del;
#X obj 342 241 list split 1;
#X obj 370 328 list;
#X obj 299 273 t b f;
#X obj 343 200 list;
#X obj 352 664 outlet;
#X obj 237 388 select;
#X obj 203 418 f;
#X obj 111 306 t b f f;
#X obj 278 125 + 1;
#X msg 275 76 0, f 2;
#X obj 250 153 select 1;
#X obj 230 125 f 0;
#X obj 350 75 t b l;
#X obj 154 74 t b l;
#X obj 301 493 list;
#X obj 349 534 list;
#X obj 205 465 list prepend;
#X obj 391 400 t b b;
#X text 217 179 trigger when;
#X text 206 195 both terms update;
#X text 351 219 iterate through term 2;
#X text 16 248 iterate through term 1;
#X text 234 408 bang if an;
#X text 234 421 element matches;
#N canvas 844 230 412 812 complement 0;
#X obj 133 74 inlet;
#X obj 416 84 inlet;
#X obj 145 241 f;
#X obj 183 241 + 1;
#X obj 106 354 select;
#X msg 182 139 0, f 2;
#X obj 155 455 list;
#X obj 401 255 list split 1;
#X obj 155 484 list split 1;
#X obj 185 388 list append;
#X obj 432 306 list;
#X obj 361 281 t b f;
#X obj 486 203 b;
#X obj 184 293 t f f;
#X obj 181 171 t f b;
#X obj 307 409 list;
#X obj 173 544 list;
#X obj 402 182 list;
#X obj 379 322 del;
#X obj 129 747 outlet;
#X obj 248 69 inlet;
#X obj 177 266 sel 1;
#X text 65 54 complement is selected;
#X text 65 38 Trigger calculation if;
#X text 246 50 period;
#X text 394 53 Recieve list to;
#X text 394 67 calculate complement;
#X obj 130 720 list;
#X obj 175 569 t l b;
#X obj 77 600 list split 1;
#X obj 227 707 list;
#X obj 162 630 list;
#X obj 78 625 t b f;
#X obj 148 684 list append;
#X obj 225 169 + 1;
#X obj 238 141 f;
#X obj 182 107 t b b;
#X text 47 527 When done;
#X obj 184 415 t b l l;
#X obj 108 526 b;
#X text 249 167 send period;
#X text 249 181 to iterator;
#X text 69 258 0 to period;
#X text 8 341 Bang if;
#X text 8 358 number in list;
#X text 42 473 if number in list;
#X text 10 486 remove number from list;
#X text 21 241 iterate numbers from;
#X text 292 231 Send list to;
#X text 292 245 reject numbers;
#X text 292 259 that are in list;
#X text 213 646 Reorganize list into ascending and output;
#X connect 0 0 36 0;
#X connect 1 0 17 1;
#X connect 2 0 3 0;
#X connect 2 0 21 0;
#X connect 3 0 2 1;
#X connect 4 0 6 0;
#X connect 5 0 14 0;
#X connect 6 0 8 0;
#X connect 7 0 11 0;
#X connect 7 1 10 1;
#X connect 7 2 12 0;
#X connect 8 1 15 0;
#X connect 9 0 38 0;
#X connect 10 0 7 0;
#X connect 11 0 18 0;
#X connect 11 1 4 0;
#X connect 12 0 2 0;
#X connect 13 0 9 0;
#X connect 13 1 4 1;
#X connect 14 0 2 0;
#X connect 14 1 9 1;
#X connect 15 0 9 1;
#X connect 15 0 16 1;
#X connect 16 0 28 0;
#X connect 17 0 7 0;
#X connect 18 0 10 0;
#X connect 20 0 35 1;
#X connect 21 0 39 0;
#X connect 21 1 13 0;
#X connect 27 0 19 0;
#X connect 28 0 29 0;
#X connect 28 1 33 1;
#X connect 29 0 32 0;
#X connect 29 1 31 1;
#X connect 29 2 27 0;
#X connect 30 0 33 1;
#X connect 31 0 29 0;
#X connect 32 0 31 0;
#X connect 32 1 33 0;
#X connect 33 0 27 1;
#X connect 33 0 30 0;
#X connect 34 0 21 1;
#X connect 35 0 34 0;
#X connect 36 0 5 0;
#X connect 36 1 35 0;
#X connect 38 0 17 0;
#X connect 38 1 6 1;
#X connect 38 2 15 0;
#X connect 39 0 16 0;
#X restore 463 607 pd complement;
#X obj 576 311 outlet;
#X obj 418 459 sel 0;
#X obj 418 435 f 0;
#X obj 576 248 t b f;
#X obj 460 37 inlet;
#X text 460 20 Period;
#X connect 0 0 23 0;
#X connect 1 0 22 0;
#X connect 2 0 38 0;
#X connect 6 0 17 0;
#X connect 6 1 7 1;
#X connect 6 2 11 0;
#X connect 7 0 6 0;
#X connect 8 0 6 0;
#X connect 9 0 7 0;
#X connect 10 0 12 0;
#X connect 10 1 11 1;
#X connect 10 2 27 0;
#X connect 11 0 10 0;
#X connect 12 0 8 0;
#X connect 12 1 15 1;
#X connect 13 0 10 0;
#X connect 15 0 16 0;
#X connect 16 0 26 0;
#X connect 17 0 9 0;
#X connect 17 1 15 0;
#X connect 17 2 16 1;
#X connect 18 0 21 1;
#X connect 19 0 21 1;
#X connect 20 0 19 0;
#X connect 20 0 13 0;
#X connect 21 0 18 0;
#X connect 21 0 20 0;
#X connect 22 0 21 0;
#X connect 22 1 13 1;
#X connect 23 0 21 0;
#X connect 23 1 8 1;
#X connect 24 0 25 1;
#X connect 24 0 26 1;
#X connect 25 0 14 0;
#X connect 25 0 34 2;
#X connect 26 0 24 0;
#X connect 27 0 26 1;
#X connect 27 1 37 0;
#X connect 34 0 14 0;
#X connect 36 0 25 0;
#X connect 36 1 34 0;
#X connect 37 0 36 0;
#X connect 38 0 35 0;
#X connect 38 1 37 1;
#X connect 39 0 34 1;
#X restore 921 452 pd intersection;
#X obj 1055 423 tgl 15 0 empty \$0-ic3 empty 17 7 0 10 -262144 -1 -1
0 1;
#X obj 846 353 s \$0-update;
#X obj 1014 353 s \$0-update;
#X obj 1007 475 s \$0-update;
#X obj 979 423 r \$0-period;
#X obj 1163 243 r \$0-period;
#X obj 1180 263 r \$0-modA;
#X obj 1331 243 r \$0-period;
#X obj 1350 263 r \$0-modB;
#N canvas 1124 230 548 812 intersection 0;
#X obj 154 37 inlet;
#X obj 346 37 inlet;
#X obj 529 37 inlet;
#X text 529 19 Complement;
#X text 154 19 Term 1;
#X text 346 19 Term 2;
#X obj 151 280 list split 1;
#X obj 182 331 list;
#X obj 152 207 list;
#X obj 129 347 del;
#X obj 342 241 list split 1;
#X obj 370 328 list;
#X obj 299 273 t b f;
#X obj 343 200 list;
#X obj 352 664 outlet;
#X obj 237 388 select;
#X obj 203 418 f;
#X obj 111 306 t b f f;
#X obj 278 125 + 1;
#X msg 275 76 0, f 2;
#X obj 250 153 select 1;
#X obj 230 125 f 0;
#X obj 350 75 t b l;
#X obj 154 74 t b l;
#X obj 301 493 list;
#X obj 349 534 list;
#X obj 205 465 list prepend;
#X obj 391 400 t b b;
#X text 217 179 trigger when;
#X text 206 195 both terms update;
#X text 351 219 iterate through term 2;
#X text 16 248 iterate through term 1;
#X text 234 408 bang if an;
#X text 234 421 element matches;
#N canvas 844 230 412 812 complement 0;
#X obj 133 74 inlet;
#X obj 416 84 inlet;
#X obj 145 241 f;
#X obj 183 241 + 1;
#X obj 106 354 select;
#X msg 182 139 0, f 2;
#X obj 155 455 list;
#X obj 401 255 list split 1;
#X obj 155 484 list split 1;
#X obj 185 388 list append;
#X obj 432 306 list;
#X obj 361 281 t b f;
#X obj 486 203 b;
#X obj 184 293 t f f;
#X obj 181 171 t f b;
#X obj 307 409 list;
#X obj 173 544 list;
#X obj 402 182 list;
#X obj 379 322 del;
#X obj 129 747 outlet;
#X obj 248 69 inlet;
#X obj 177 266 sel 1;
#X text 65 54 complement is selected;
#X text 65 38 Trigger calculation if;
#X text 246 50 period;
#X text 394 53 Recieve list to;
#X text 394 67 calculate complement;
#X obj 130 720 list;
#X obj 175 569 t l b;
#X obj 77 600 list split 1;
#X obj 227 707 list;
#X obj 162 630 list;
#X obj 78 625 t b f;
#X obj 148 684 list append;
#X obj 225 169 + 1;
#X obj 238 141 f;
#X obj 182 107 t b b;
#X text 47 527 When done;
#X obj 184 415 t b l l;
#X obj 108 526 b;
#X text 249 167 send period;
#X text 249 181 to iterator;
#X text 69 258 0 to period;
#X text 8 341 Bang if;
#X text 8 358 number in list;
#X text 42 473 if number in list;
#X text 10 486 remove number from list;
#X text 21 241 iterate numbers from;
#X text 292 231 Send list to;
#X text 292 245 reject numbers;
#X text 292 259 that are in list;
#X text 213 646 Reorganize list into ascending and output;
#X connect 0 0 36 0;
#X connect 1 0 17 1;
#X connect 2 0 3 0;
#X connect 2 0 21 0;
#X connect 3 0 2 1;
#X connect 4 0 6 0;
#X connect 5 0 14 0;
#X connect 6 0 8 0;
#X connect 7 0 11 0;
#X connect 7 1 10 1;
#X connect 7 2 12 0;
#X connect 8 1 15 0;
#X connect 9 0 38 0;
#X connect 10 0 7 0;
#X connect 11 0 18 0;
#X connect 11 1 4 0;
#X connect 12 0 2 0;
#X connect 13 0 9 0;
#X connect 13 1 4 1;
#X connect 14 0 2 0;
#X connect 14 1 9 1;
#X connect 15 0 9 1;
#X connect 15 0 16 1;
#X connect 16 0 28 0;
#X connect 17 0 7 0;
#X connect 18 0 10 0;
#X connect 20 0 35 1;
#X connect 21 0 39 0;
#X connect 21 1 13 0;
#X connect 27 0 19 0;
#X connect 28 0 29 0;
#X connect 28 1 33 1;
#X connect 29 0 32 0;
#X connect 29 1 31 1;
#X connect 29 2 27 0;
#X connect 30 0 33 1;
#X connect 31 0 29 0;
#X connect 32 0 31 0;
#X connect 32 1 33 0;
#X connect 33 0 27 1;
#X connect 33 0 30 0;
#X connect 34 0 21 1;
#X connect 35 0 34 0;
#X connect 36 0 5 0;
#X connect 36 1 35 0;
#X connect 38 0 17 0;
#X connect 38 1 6 1;
#X connect 38 2 15 0;
#X connect 39 0 16 0;
#X restore 463 607 pd complement;
#X obj 576 311 outlet;
#X obj 418 459 sel 0;
#X obj 418 435 f 0;
#X obj 576 248 t b f;
#X obj 460 37 inlet;
#X text 460 20 Period;
#X connect 0 0 23 0;
#X connect 1 0 22 0;
#X connect 2 0 38 0;
#X connect 6 0 17 0;
#X connect 6 1 7 1;
#X connect 6 2 11 0;
#X connect 7 0 6 0;
#X connect 8 0 6 0;
#X connect 9 0 7 0;
#X connect 10 0 12 0;
#X connect 10 1 11 1;
#X connect 10 2 27 0;
#X connect 11 0 10 0;
#X connect 12 0 8 0;
#X connect 12 1 15 1;
#X connect 13 0 10 0;
#X connect 15 0 16 0;
#X connect 16 0 26 0;
#X connect 17 0 9 0;
#X connect 17 1 15 0;
#X connect 17 2 16 1;
#X connect 18 0 21 1;
#X connect 19 0 21 1;
#X connect 20 0 19 0;
#X connect 20 0 13 0;
#X connect 21 0 18 0;
#X connect 21 0 20 0;
#X connect 22 0 21 0;
#X connect 22 1 13 1;
#X connect 23 0 21 0;
#X connect 23 1 8 1;
#X connect 24 0 25 1;
#X connect 24 0 26 1;
#X connect 25 0 14 0;
#X connect 25 0 34 2;
#X connect 26 0 24 0;
#X connect 27 0 26 1;
#X connect 27 1 37 0;
#X connect 34 0 14 0;
#X connect 36 0 25 0;
#X connect 36 1 34 0;
#X connect 37 0 36 0;
#X connect 38 0 35 0;
#X connect 38 1 37 1;
#X connect 39 0 34 1;
#X restore 1288 449 pd intersection;
#X obj 1422 420 tgl 15 0 empty \$0-ic4 empty 17 7 0 10 -262144 -1 -1
0 1;
#X obj 1213 350 s \$0-update;
#X obj 1381 350 s \$0-update;
#X obj 1374 472 s \$0-update;
#X obj 1346 420 r \$0-period;
#X obj 830 287 r \$0-i5;
#X obj 1000 288 r \$0-i6;
#X obj 1197 284 r \$0-i7;
#X obj 1366 282 r \$0-i8;
#N canvas 564 230 552 789 term_8 0;
#X obj 195 275 sel 1;
#X obj 313 255 +, f 1;
#X obj 283 255 f, f 1;
#X obj 379 334 list;
#X obj 289 306 list prepend;
#X obj 283 278 t f f, f 6;
#X obj 241 397 list;
#X obj 188 213 -;
#X obj 196 252 <= 100;
#X obj 252 168 t b b f b;
#X obj 302 76 t b f;
#X obj 254 135 t f f;
#X obj 177 161 t b f;
#X obj 132 44 inlet;
#X obj 256 44 inlet;
#X obj 315 44 inlet;
#X obj 241 460 outlet;
#X text 246 25 Modulus;
#X text 314 25 Index;
#X text 129 25 Period;
#X text 41 260 stop iterating at period;
#X text 378 307 compile list;
#X obj 133 68 t b f;
#X text 272 398 residual class;
#X obj 417 44 inlet;
#X obj 247 219 sel 0;
#N canvas 1124 230 548 789 complement 0;
#X obj 133 74 inlet;
#X obj 416 84 inlet;
#X obj 145 241 f;
#X obj 183 241 + 1;
#X obj 106 354 select;
#X msg 182 139 0, f 2;
#X obj 155 455 list;
#X obj 401 255 list split 1;
#X obj 155 484 list split 1;
#X obj 185 388 list append;
#X obj 432 306 list;
#X obj 361 281 t b f;
#X obj 486 203 b;
#X obj 184 293 t f f;
#X obj 181 171 t f b;
#X obj 307 409 list;
#X obj 173 544 list;
#X obj 402 182 list;
#X obj 379 322 del;
#X obj 129 747 outlet;
#X obj 248 69 inlet;
#X obj 177 266 sel 1;
#X text 65 54 complement is selected;
#X text 65 38 Trigger calculation if;
#X text 246 50 period;
#X text 394 53 Recieve list to;
#X text 394 67 calculate complement;
#X obj 130 720 list;
#X obj 175 569 t l b;
#X obj 77 600 list split 1;
#X obj 227 707 list;
#X obj 162 630 list;
#X obj 78 625 t b f;
#X obj 148 684 list append;
#X obj 225 169 + 1;
#X obj 238 141 f;
#X obj 182 107 t b b;
#X text 47 527 When done;
#X obj 184 415 t b l l;
#X obj 108 526 b;
#X text 249 167 send period;
#X text 249 181 to iterator;
#X text 69 258 0 to period;
#X text 8 341 Bang if;
#X text 8 358 number in list;
#X text 42 473 if number in list;
#X text 10 486 remove number from list;
#X text 21 241 iterate numbers from;
#X text 292 231 Send list to;
#X text 292 245 reject numbers;
#X text 292 259 that are in list;
#X text 213 646 Reorganize list into ascending and output;
#X connect 0 0 36 0;
#X connect 1 0 17 1;
#X connect 2 0 3 0;
#X connect 2 0 21 0;
#X connect 3 0 2 1;
#X connect 4 0 6 0;
#X connect 5 0 14 0;
#X connect 6 0 8 0;
#X connect 7 0 11 0;
#X connect 7 1 10 1;
#X connect 7 2 12 0;
#X connect 8 1 15 0;
#X connect 9 0 38 0;
#X connect 10 0 7 0;
#X connect 11 0 18 0;
#X connect 11 1 4 0;
#X connect 12 0 2 0;
#X connect 13 0 9 0;
#X connect 13 1 4 1;
#X connect 14 0 2 0;
#X connect 14 1 9 1;
#X connect 15 0 9 1;
#X connect 15 0 16 1;
#X connect 16 0 28 0;
#X connect 17 0 7 0;
#X connect 18 0 10 0;
#X connect 20 0 35 1;
#X connect 21 0 39 0;
#X connect 21 1 13 0;
#X connect 27 0 19 0;
#X connect 28 0 29 0;
#X connect 28 1 33 1;
#X connect 29 0 32 0;
#X connect 29 1 31 1;
#X connect 29 2 27 0;
#X connect 30 0 33 1;
#X connect 31 0 29 0;
#X connect 32 0 31 0;
#X connect 32 1 33 0;
#X connect 33 0 27 1;
#X connect 33 0 30 0;
#X connect 34 0 21 1;
#X connect 35 0 34 0;
#X connect 36 0 5 0;
#X connect 36 1 35 0;
#X connect 38 0 17 0;
#X connect 38 1 6 1;
#X connect 38 2 15 0;
#X connect 39 0 16 0;
#X restore 119 408 pd complement;
#X text 18 407 complement class;
#X obj 185 93 del 1;
#X obj 178 381 list;
#X text 417 25 Complement;
#X obj 395 80 t b f;
#X obj 247 195 f 0;
#X text 341 241 iterate residual class;
#X obj 255 114 f 1;
#X obj 152 188 f 1;
#X obj 292 228 f 0;
#X obj 399 148 outlet;
#X connect 0 0 2 0;
#X connect 1 0 2 1;
#X connect 2 0 1 0;
#X connect 2 0 5 0;
#X connect 3 0 4 1;
#X connect 4 0 3 0;
#X connect 4 0 6 1;
#X connect 4 0 29 0;
#X connect 5 0 8 0;
#X connect 5 1 4 0;
#X connect 6 0 16 0;
#X connect 7 0 8 1;
#X connect 8 0 0 0;
#X connect 9 0 32 0;
#X connect 9 1 36 0;
#X connect 9 2 1 1;
#X connect 9 3 4 1;
#X connect 10 0 37 0;
#X connect 10 1 36 1;
#X connect 11 0 9 0;
#X connect 11 1 12 0;
#X connect 12 0 35 0;
#X connect 12 1 7 1;
#X connect 13 0 22 0;
#X connect 14 0 34 1;
#X connect 15 0 10 0;
#X connect 22 0 28 0;
#X connect 22 1 35 0;
#X connect 24 0 31 0;
#X connect 25 0 6 0;
#X connect 25 1 26 0;
#X connect 26 0 16 0;
#X connect 28 0 34 0;
#X connect 29 0 26 2;
#X connect 31 0 37 0;
#X connect 31 1 25 1;
#X connect 32 0 25 0;
#X connect 34 0 11 0;
#X connect 35 0 7 0;
#X connect 35 0 26 1;
#X connect 36 0 2 0;
#X restore 1331 327 pd term_8;
#N canvas 8 196 1664 335 term_7 0;
#X obj 195 275 sel 1;
#X obj 313 255 +, f 1;
#X obj 283 255 f, f 1;
#X obj 379 334 list;
#X obj 289 306 list prepend;
#X obj 283 278 t f f, f 6;
#X obj 241 397 list;
#X obj 188 213 -;
#X obj 196 252 <= 100;
#X obj 252 168 t b b f b;
#X obj 302 76 t b f;
#X obj 254 135 t f f;
#X obj 177 161 t b f;
#X obj 132 44 inlet;
#X obj 256 44 inlet;
#X obj 315 44 inlet;
#X obj 241 460 outlet;
#X text 246 25 Modulus;
#X text 314 25 Index;
#X text 129 25 Period;
#X text 41 260 stop iterating at period;
#X text 378 307 compile list;
#X obj 133 68 t b f;
#X text 272 398 residual class;
#X obj 417 44 inlet;
#X obj 247 219 sel 0;
#N canvas 564 282 552 760 complement 0;
#X obj 133 74 inlet;
#X obj 416 84 inlet;
#X obj 145 241 f;
#X obj 183 241 + 1;
#X obj 106 354 select;
#X msg 182 139 0, f 2;
#X obj 155 455 list;
#X obj 401 255 list split 1;
#X obj 155 484 list split 1;
#X obj 185 388 list append;
#X obj 432 306 list;
#X obj 361 281 t b f;
#X obj 486 203 b;
#X obj 184 293 t f f;
#X obj 181 171 t f b;
#X obj 307 409 list;
#X obj 173 544 list;
#X obj 402 182 list;
#X obj 379 322 del;
#X obj 129 747 outlet;
#X obj 248 69 inlet;
#X obj 177 266 sel 1;
#X text 65 54 complement is selected;
#X text 65 38 Trigger calculation if;
#X text 246 50 period;
#X text 394 53 Recieve list to;
#X text 394 67 calculate complement;
#X obj 130 720 list;
#X obj 175 569 t l b;
#X obj 77 600 list split 1;
#X obj 227 707 list;
#X obj 162 630 list;
#X obj 78 625 t b f;
#X obj 148 684 list append;
#X obj 225 169 + 1;
#X obj 238 141 f;
#X obj 182 107 t b b;
#X text 47 527 When done;
#X obj 184 415 t b l l;
#X obj 108 526 b;
#X text 249 167 send period;
#X text 249 181 to iterator;
#X text 69 258 0 to period;
#X text 8 341 Bang if;
#X text 8 358 number in list;
#X text 42 473 if number in list;
#X text 10 486 remove number from list;
#X text 21 241 iterate numbers from;
#X text 292 231 Send list to;
#X text 292 245 reject numbers;
#X text 292 259 that are in list;
#X text 213 646 Reorganize list into ascending and output;
#X connect 0 0 36 0;
#X connect 1 0 17 1;
#X connect 2 0 3 0;
#X connect 2 0 21 0;
#X connect 3 0 2 1;
#X connect 4 0 6 0;
#X connect 5 0 14 0;
#X connect 6 0 8 0;
#X connect 7 0 11 0;
#X connect 7 1 10 1;
#X connect 7 2 12 0;
#X connect 8 1 15 0;
#X connect 9 0 38 0;
#X connect 10 0 7 0;
#X connect 11 0 18 0;
#X connect 11 1 4 0;
#X connect 12 0 2 0;
#X connect 13 0 9 0;
#X connect 13 1 4 1;
#X connect 14 0 2 0;
#X connect 14 1 9 1;
#X connect 15 0 9 1;
#X connect 15 0 16 1;
#X connect 16 0 28 0;
#X connect 17 0 7 0;
#X connect 18 0 10 0;
#X connect 20 0 35 1;
#X connect 21 0 39 0;
#X connect 21 1 13 0;
#X connect 27 0 19 0;
#X connect 28 0 29 0;
#X connect 28 1 33 1;
#X connect 29 0 32 0;
#X connect 29 1 31 1;
#X connect 29 2 27 0;
#X connect 30 0 33 1;
#X connect 31 0 29 0;
#X connect 32 0 31 0;
#X connect 32 1 33 0;
#X connect 33 0 27 1;
#X connect 33 0 30 0;
#X connect 34 0 21 1;
#X connect 35 0 34 0;
#X connect 36 0 5 0;
#X connect 36 1 35 0;
#X connect 38 0 17 0;
#X connect 38 1 6 1;
#X connect 38 2 15 0;
#X connect 39 0 16 0;
#X restore 119 408 pd complement;
#X text 18 407 complement class;
#X obj 185 93 del 1;
#X obj 178 381 list;
#X text 417 25 Complement;
#X obj 395 80 t b f;
#X obj 247 195 f 0;
#X text 341 241 iterate residual class;
#X obj 255 114 f 1;
#X obj 152 188 f 1;
#X obj 292 228 f 0;
#X obj 398 154 outlet;
#X connect 0 0 2 0;
#X connect 1 0 2 1;
#X connect 2 0 1 0;
#X connect 2 0 5 0;
#X connect 3 0 4 1;
#X connect 4 0 3 0;
#X connect 4 0 6 1;
#X connect 4 0 29 0;
#X connect 5 0 8 0;
#X connect 5 1 4 0;
#X connect 6 0 16 0;
#X connect 7 0 8 1;
#X connect 8 0 0 0;
#X connect 9 0 32 0;
#X connect 9 1 36 0;
#X connect 9 2 1 1;
#X connect 9 3 4 1;
#X connect 10 0 37 0;
#X connect 10 1 36 1;
#X connect 11 0 9 0;
#X connect 11 1 12 0;
#X connect 12 0 35 0;
#X connect 12 1 7 1;
#X connect 13 0 22 0;
#X connect 14 0 34 1;
#X connect 15 0 10 0;
#X connect 22 0 28 0;
#X connect 22 1 35 0;
#X connect 24 0 31 0;
#X connect 25 0 6 0;
#X connect 25 1 26 0;
#X connect 26 0 16 0;
#X connect 28 0 34 0;
#X connect 29 0 26 2;
#X connect 31 0 37 0;
#X connect 31 1 25 1;
#X connect 32 0 25 0;
#X connect 34 0 11 0;
#X connect 35 0 7 0;
#X connect 35 0 26 1;
#X connect 36 0 2 0;
#X restore 1163 327 pd term_7;
#N canvas 564 230 552 789 term_6 0;
#X obj 195 275 sel 1;
#X obj 313 255 +, f 1;
#X obj 283 255 f, f 1;
#X obj 379 334 list;
#X obj 289 306 list prepend;
#X obj 283 278 t f f, f 6;
#X obj 241 397 list;
#X obj 188 213 -;
#X obj 196 252 <= 100;
#X obj 252 168 t b b f b;
#X obj 302 76 t b f;
#X obj 254 135 t f f;
#X obj 177 161 t b f;
#X obj 132 44 inlet;
#X obj 256 44 inlet;
#X obj 315 44 inlet;
#X obj 241 460 outlet;
#X text 246 25 Modulus;
#X text 314 25 Index;
#X text 129 25 Period;
#X text 41 260 stop iterating at period;
#X text 378 307 compile list;
#X obj 133 68 t b f;
#X text 272 398 residual class;
#X obj 417 44 inlet;
#X obj 247 219 sel 0;
#N canvas 1124 230 548 789 complement 0;
#X obj 133 74 inlet;
#X obj 416 84 inlet;
#X obj 145 241 f;
#X obj 183 241 + 1;
#X obj 106 354 select;
#X msg 182 139 0, f 2;
#X obj 155 455 list;
#X obj 401 255 list split 1;
#X obj 155 484 list split 1;
#X obj 185 388 list append;
#X obj 432 306 list;
#X obj 361 281 t b f;
#X obj 486 203 b;
#X obj 184 293 t f f;
#X obj 181 171 t f b;
#X obj 307 409 list;
#X obj 173 544 list;
#X obj 402 182 list;
#X obj 379 322 del;
#X obj 129 747 outlet;
#X obj 248 69 inlet;
#X obj 177 266 sel 1;
#X text 65 54 complement is selected;
#X text 65 38 Trigger calculation if;
#X text 246 50 period;
#X text 394 53 Recieve list to;
#X text 394 67 calculate complement;
#X obj 130 720 list;
#X obj 175 569 t l b;
#X obj 77 600 list split 1;
#X obj 227 707 list;
#X obj 162 630 list;
#X obj 78 625 t b f;
#X obj 148 684 list append;
#X obj 225 169 + 1;
#X obj 238 141 f;
#X obj 182 107 t b b;
#X text 47 527 When done;
#X obj 184 415 t b l l;
#X obj 108 526 b;
#X text 249 167 send period;
#X text 249 181 to iterator;
#X text 69 258 0 to period;
#X text 8 341 Bang if;
#X text 8 358 number in list;
#X text 42 473 if number in list;
#X text 10 486 remove number from list;
#X text 21 241 iterate numbers from;
#X text 292 231 Send list to;
#X text 292 245 reject numbers;
#X text 292 259 that are in list;
#X text 213 646 Reorganize list into ascending and output;
#X connect 0 0 36 0;
#X connect 1 0 17 1;
#X connect 2 0 3 0;
#X connect 2 0 21 0;
#X connect 3 0 2 1;
#X connect 4 0 6 0;
#X connect 5 0 14 0;
#X connect 6 0 8 0;
#X connect 7 0 11 0;
#X connect 7 1 10 1;
#X connect 7 2 12 0;
#X connect 8 1 15 0;
#X connect 9 0 38 0;
#X connect 10 0 7 0;
#X connect 11 0 18 0;
#X connect 11 1 4 0;
#X connect 12 0 2 0;
#X connect 13 0 9 0;
#X connect 13 1 4 1;
#X connect 14 0 2 0;
#X connect 14 1 9 1;
#X connect 15 0 9 1;
#X connect 15 0 16 1;
#X connect 16 0 28 0;
#X connect 17 0 7 0;
#X connect 18 0 10 0;
#X connect 20 0 35 1;
#X connect 21 0 39 0;
#X connect 21 1 13 0;
#X connect 27 0 19 0;
#X connect 28 0 29 0;
#X connect 28 1 33 1;
#X connect 29 0 32 0;
#X connect 29 1 31 1;
#X connect 29 2 27 0;
#X connect 30 0 33 1;
#X connect 31 0 29 0;
#X connect 32 0 31 0;
#X connect 32 1 33 0;
#X connect 33 0 27 1;
#X connect 33 0 30 0;
#X connect 34 0 21 1;
#X connect 35 0 34 0;
#X connect 36 0 5 0;
#X connect 36 1 35 0;
#X connect 38 0 17 0;
#X connect 38 1 6 1;
#X connect 38 2 15 0;
#X connect 39 0 16 0;
#X restore 119 408 pd complement;
#X text 18 407 complement class;
#X obj 185 93 del 1;
#X obj 178 381 list;
#X text 417 25 Complement;
#X obj 395 80 t b f;
#X obj 247 195 f 0;
#X text 341 241 iterate residual class;
#X obj 255 114 f 1;
#X obj 152 188 f 1;
#X obj 292 228 f 0;
#X obj 399 148 outlet;
#X connect 0 0 2 0;
#X connect 1 0 2 1;
#X connect 2 0 1 0;
#X connect 2 0 5 0;
#X connect 3 0 4 1;
#X connect 4 0 3 0;
#X connect 4 0 6 1;
#X connect 4 0 29 0;
#X connect 5 0 8 0;
#X connect 5 1 4 0;
#X connect 6 0 16 0;
#X connect 7 0 8 1;
#X connect 8 0 0 0;
#X connect 9 0 32 0;
#X connect 9 1 36 0;
#X connect 9 2 1 1;
#X connect 9 3 4 1;
#X connect 10 0 37 0;
#X connect 10 1 36 1;
#X connect 11 0 9 0;
#X connect 11 1 12 0;
#X connect 12 0 35 0;
#X connect 12 1 7 1;
#X connect 13 0 22 0;
#X connect 14 0 34 1;
#X connect 15 0 10 0;
#X connect 22 0 28 0;
#X connect 22 1 35 0;
#X connect 24 0 31 0;
#X connect 25 0 6 0;
#X connect 25 1 26 0;
#X connect 26 0 16 0;
#X connect 28 0 34 0;
#X connect 29 0 26 2;
#X connect 31 0 37 0;
#X connect 31 1 25 1;
#X connect 32 0 25 0;
#X connect 34 0 11 0;
#X connect 35 0 7 0;
#X connect 35 0 26 1;
#X connect 36 0 2 0;
#X restore 964 330 pd term_6;
#N canvas 424 282 412 760 term_5 0;
#X obj 195 275 sel 1;
#X obj 313 255 +, f 1;
#X obj 283 255 f, f 1;
#X obj 379 334 list;
#X obj 289 306 list prepend;
#X obj 283 278 t f f, f 6;
#X obj 241 397 list;
#X obj 188 213 -;
#X obj 196 252 <= 100;
#X obj 252 168 t b b f b;
#X obj 302 76 t b f;
#X obj 254 135 t f f;
#X obj 177 161 t b f;
#X obj 132 44 inlet;
#X obj 256 44 inlet;
#X obj 315 44 inlet;
#X obj 241 460 outlet;
#X text 246 25 Modulus;
#X text 314 25 Index;
#X text 129 25 Period;
#X text 41 260 stop iterating at period;
#X text 378 307 compile list;
#X obj 133 68 t b f;
#X text 272 398 residual class;
#X obj 417 44 inlet;
#X obj 247 219 sel 0;
#N canvas 564 282 552 760 complement 0;
#X obj 133 74 inlet;
#X obj 416 84 inlet;
#X obj 145 241 f;
#X obj 183 241 + 1;
#X obj 106 354 select;
#X msg 182 139 0, f 2;
#X obj 155 455 list;
#X obj 401 255 list split 1;
#X obj 155 484 list split 1;
#X obj 185 388 list append;
#X obj 432 306 list;
#X obj 361 281 t b f;
#X obj 486 203 b;
#X obj 184 293 t f f;
#X obj 181 171 t f b;
#X obj 307 409 list;
#X obj 173 544 list;
#X obj 402 182 list;
#X obj 379 322 del;
#X obj 129 747 outlet;
#X obj 248 69 inlet;
#X obj 177 266 sel 1;
#X text 65 54 complement is selected;
#X text 65 38 Trigger calculation if;
#X text 246 50 period;
#X text 394 53 Recieve list to;
#X text 394 67 calculate complement;
#X obj 130 720 list;
#X obj 175 569 t l b;
#X obj 77 600 list split 1;
#X obj 227 707 list;
#X obj 162 630 list;
#X obj 78 625 t b f;
#X obj 148 684 list append;
#X obj 225 169 + 1;
#X obj 238 141 f;
#X obj 182 107 t b b;
#X text 47 527 When done;
#X obj 184 415 t b l l;
#X obj 108 526 b;
#X text 249 167 send period;
#X text 249 181 to iterator;
#X text 69 258 0 to period;
#X text 8 341 Bang if;
#X text 8 358 number in list;
#X text 42 473 if number in list;
#X text 10 486 remove number from list;
#X text 21 241 iterate numbers from;
#X text 292 231 Send list to;
#X text 292 245 reject numbers;
#X text 292 259 that are in list;
#X text 213 646 Reorganize list into ascending and output;
#X connect 0 0 36 0;
#X connect 1 0 17 1;
#X connect 2 0 3 0;
#X connect 2 0 21 0;
#X connect 3 0 2 1;
#X connect 4 0 6 0;
#X connect 5 0 14 0;
#X connect 6 0 8 0;
#X connect 7 0 11 0;
#X connect 7 1 10 1;
#X connect 7 2 12 0;
#X connect 8 1 15 0;
#X connect 9 0 38 0;
#X connect 10 0 7 0;
#X connect 11 0 18 0;
#X connect 11 1 4 0;
#X connect 12 0 2 0;
#X connect 13 0 9 0;
#X connect 13 1 4 1;
#X connect 14 0 2 0;
#X connect 14 1 9 1;
#X connect 15 0 9 1;
#X connect 15 0 16 1;
#X connect 16 0 28 0;
#X connect 17 0 7 0;
#X connect 18 0 10 0;
#X connect 20 0 35 1;
#X connect 21 0 39 0;
#X connect 21 1 13 0;
#X connect 27 0 19 0;
#X connect 28 0 29 0;
#X connect 28 1 33 1;
#X connect 29 0 32 0;
#X connect 29 1 31 1;
#X connect 29 2 27 0;
#X connect 30 0 33 1;
#X connect 31 0 29 0;
#X connect 32 0 31 0;
#X connect 32 1 33 0;
#X connect 33 0 27 1;
#X connect 33 0 30 0;
#X connect 34 0 21 1;
#X connect 35 0 34 0;
#X connect 36 0 5 0;
#X connect 36 1 35 0;
#X connect 38 0 17 0;
#X connect 38 1 6 1;
#X connect 38 2 15 0;
#X connect 39 0 16 0;
#X restore 119 408 pd complement;
#X text 18 407 complement class;
#X obj 185 93 del 1;
#X obj 178 381 list;
#X text 417 25 Complement;
#X obj 395 80 t b f;
#X obj 247 195 f 0;
#X text 341 241 iterate residual class;
#X obj 255 114 f 1;
#X obj 152 188 f 1;
#X obj 292 228 f 0;
#X obj 398 154 outlet;
#X connect 0 0 2 0;
#X connect 1 0 2 1;
#X connect 2 0 1 0;
#X connect 2 0 5 0;
#X connect 3 0 4 1;
#X connect 4 0 3 0;
#X connect 4 0 6 1;
#X connect 4 0 29 0;
#X connect 5 0 8 0;
#X connect 5 1 4 0;
#X connect 6 0 16 0;
#X connect 7 0 8 1;
#X connect 8 0 0 0;
#X connect 9 0 32 0;
#X connect 9 1 36 0;
#X connect 9 2 1 1;
#X connect 9 3 4 1;
#X connect 10 0 37 0;
#X connect 10 1 36 1;
#X connect 11 0 9 0;
#X connect 11 1 12 0;
#X connect 12 0 35 0;
#X connect 12 1 7 1;
#X connect 13 0 22 0;
#X connect 14 0 34 1;
#X connect 15 0 10 0;
#X connect 22 0 28 0;
#X connect 22 1 35 0;
#X connect 24 0 31 0;
#X connect 25 0 6 0;
#X connect 25 1 26 0;
#X connect 26 0 16 0;
#X connect 28 0 34 0;
#X connect 29 0 26 2;
#X connect 31 0 37 0;
#X connect 31 1 25 1;
#X connect 32 0 25 0;
#X connect 34 0 11 0;
#X connect 35 0 7 0;
#X connect 35 0 26 1;
#X connect 36 0 2 0;
#X restore 796 330 pd term_5;
#X floatatom 389 110 5 0 100 3 index5 - #0-i5, f 5;
#X floatatom 434 110 5 0 100 3 index6 - #0-i6, f 5;
#X floatatom 490 110 5 0 100 3 index7 - #0-i7, f 5;
#X floatatom 535 110 5 0 100 3 index8 - #0-i8, f 5;
#N canvas 8 711 1664 331 union 0;
#X obj 154 37 inlet;
#X obj 346 37 inlet;
#X text 154 19 Term 1;
#X text 346 19 Term 2;
#X obj 152 195 list;
#X obj 343 200 list;
#X obj 105 670 outlet;
#X obj 294 118 + 1;
#X msg 267 79 0, f 2;
#X obj 248 147 select 1;
#X obj 246 118 f 0;
#X obj 350 75 t b l;
#X obj 154 74 t b l;
#X text 229 200 trigger when;
#X text 218 216 both terms update;
#X obj 246 168 t b b b;
#N canvas 8 28 548 991 listsort 0;
#X msg 94 312 add2 \$1;
#X obj 94 357 textfile;
#X obj 129 159 list length;
#X msg 156 200 resize \$1;
#X obj 193 516 array set \$0-sort;
#X obj 193 365 list split;
#X obj 193 411 list;
#X obj 221 386 list split 1;
#X obj 193 344 array get \$0-sort;
#X obj 129 180 t f f;
#X obj 193 323 t b f;
#X msg 47 334 rewind \, bang \, clear;
#X obj 78 117 inlet;
#X obj 94 378 outlet;
#X obj 94 291 array min \$0-sort;
#X obj 95 269 until;
#X obj 95 248 f;
#X obj 220 453 list length;
#X msg 220 474 resize \$1;
#X obj 193 432 t l l;
#X obj 78 138 t b b l l;
#X obj 285 144 loadbang;
#X floatatom 333 211 5 0 0 0 - - -, f 5;
#X obj 285 181 random 10000;
#X obj 112 227 array set;
#X obj 220 494 array define \$1-sort;
#X msg 335 411 rename \$1-sort;
#X msg 236 240 symbol \$1-sort;
#X connect 0 0 1 0;
#X connect 1 0 13 0;
#X connect 2 0 9 0;
#X connect 3 0 25 0;
#X connect 5 0 6 0;
#X connect 5 1 7 0;
#X connect 6 0 19 0;
#X connect 7 1 6 1;
#X connect 8 0 5 0;
#X connect 9 0 16 1;
#X connect 9 1 3 0;
#X connect 10 0 8 0;
#X connect 10 1 5 1;
#X connect 11 0 1 0;
#X connect 12 0 20 0;
#X connect 14 0 0 0;
#X connect 14 1 10 0;
#X connect 15 0 14 0;
#X connect 16 0 15 0;
#X connect 17 0 18 0;
#X connect 18 0 25 0;
#X connect 19 0 4 0;
#X connect 19 1 17 0;
#X connect 20 0 11 0;
#X connect 20 1 16 0;
#X connect 20 2 24 0;
#X connect 20 3 2 0;
#X connect 21 0 23 0;
#X connect 22 0 26 0;
#X connect 22 0 27 0;
#X connect 23 0 22 0;
#X connect 26 0 25 0;
#X connect 27 0 24 2;
#X connect 27 0 14 2;
#X connect 27 0 8 2;
#X connect 27 0 4 2;
#X restore 236 322 pd listsort;
#X obj 236 294 list append;
#X obj 237 494 change;
#X obj 239 454 list store;
#X obj 239 388 until;
#X obj 239 410 f;
#X obj 269 410 + 1;
#X msg 239 432 get \$1 1;
#X obj 279 389 0;
#X obj 231 357 t b b b l;
#X obj 243 574 list;
#X obj 103 611 list;
#X obj 149 546 list prepend;
#X connect 0 0 12 0;
#X connect 1 0 11 0;
#X connect 4 0 17 0;
#X connect 5 0 17 1;
#X connect 7 0 10 1;
#X connect 8 0 10 1;
#X connect 9 0 15 0;
#X connect 10 0 7 0;
#X connect 10 0 9 0;
#X connect 11 0 10 0;
#X connect 11 1 5 1;
#X connect 12 0 10 0;
#X connect 12 1 4 1;
#X connect 15 0 4 0;
#X connect 15 1 5 0;
#X connect 15 2 8 0;
#X connect 16 0 25 0;
#X connect 17 0 16 0;
#X connect 18 0 28 0;
#X connect 19 0 18 0;
#X connect 19 1 20 1;
#X connect 20 0 21 0;
#X connect 21 0 23 0;
#X connect 21 0 22 0;
#X connect 22 0 21 1;
#X connect 23 0 19 0;
#X connect 24 0 21 1;
#X connect 25 0 27 0;
#X connect 25 0 28 1;
#X connect 25 1 20 0;
#X connect 25 2 24 0;
#X connect 25 3 19 1;
#X connect 26 0 27 1;
#X connect 26 0 28 1;
#X connect 27 0 6 0;
#X connect 28 0 26 0;
#X restore 1082 562 pd union;
#N canvas 8 711 1664 331 union 0;
#X obj 154 37 inlet;
#X obj 346 37 inlet;
#X text 154 19 Term 1;
#X text 346 19 Term 2;
#X obj 152 195 list;
#X obj 343 200 list;
#X obj 105 670 outlet;
#X obj 294 118 + 1;
#X msg 267 79 0, f 2;
#X obj 248 147 select 1;
#X obj 246 118 f 0;
#X obj 350 75 t b l;
#X obj 154 74 t b l;
#X text 229 200 trigger when;
#X text 218 216 both terms update;
#X obj 246 168 t b b b;
#N canvas 8 28 548 991 listsort 0;
#X msg 94 312 add2 \$1;
#X obj 94 357 textfile;
#X obj 129 159 list length;
#X msg 156 200 resize \$1;
#X obj 193 516 array set \$0-sort;
#X obj 193 365 list split;
#X obj 193 411 list;
#X obj 221 386 list split 1;
#X obj 193 344 array get \$0-sort;
#X obj 129 180 t f f;
#X obj 193 323 t b f;
#X msg 47 334 rewind \, bang \, clear;
#X obj 78 117 inlet;
#X obj 94 378 outlet;
#X obj 94 291 array min \$0-sort;
#X obj 95 269 until;
#X obj 95 248 f;
#X obj 220 453 list length;
#X msg 220 474 resize \$1;
#X obj 193 432 t l l;
#X obj 78 138 t b b l l;
#X obj 285 144 loadbang;
#X floatatom 333 211 5 0 0 0 - - -, f 5;
#X obj 285 181 random 10000;
#X obj 112 227 array set;
#X obj 220 494 array define \$1-sort;
#X msg 335 411 rename \$1-sort;
#X msg 236 240 symbol \$1-sort;
#X connect 0 0 1 0;
#X connect 1 0 13 0;
#X connect 2 0 9 0;
#X connect 3 0 25 0;
#X connect 5 0 6 0;
#X connect 5 1 7 0;
#X connect 6 0 19 0;
#X connect 7 1 6 1;
#X connect 8 0 5 0;
#X connect 9 0 16 1;
#X connect 9 1 3 0;
#X connect 10 0 8 0;
#X connect 10 1 5 1;
#X connect 11 0 1 0;
#X connect 12 0 20 0;
#X connect 14 0 0 0;
#X connect 14 1 10 0;
#X connect 15 0 14 0;
#X connect 16 0 15 0;
#X connect 17 0 18 0;
#X connect 18 0 25 0;
#X connect 19 0 4 0;
#X connect 19 1 17 0;
#X connect 20 0 11 0;
#X connect 20 1 16 0;
#X connect 20 2 24 0;
#X connect 20 3 2 0;
#X connect 21 0 23 0;
#X connect 22 0 26 0;
#X connect 22 0 27 0;
#X connect 23 0 22 0;
#X connect 26 0 25 0;
#X connect 27 0 24 2;
#X connect 27 0 14 2;
#X connect 27 0 8 2;
#X connect 27 0 4 2;
#X restore 236 322 pd listsort;
#X obj 236 294 list append;
#X obj 237 494 change;
#X obj 239 454 list store;
#X obj 239 388 until;
#X obj 239 410 f;
#X obj 269 410 + 1;
#X msg 239 432 get \$1 1;
#X obj 279 389 0;
#X obj 231 357 t b b b l;
#X obj 243 574 list;
#X obj 103 611 list;
#X obj 149 546 list prepend;
#X connect 0 0 12 0;
#X connect 1 0 11 0;
#X connect 4 0 17 0;
#X connect 5 0 17 1;
#X connect 7 0 10 1;
#X connect 8 0 10 1;
#X connect 9 0 15 0;
#X connect 10 0 7 0;
#X connect 10 0 9 0;
#X connect 11 0 10 0;
#X connect 11 1 5 1;
#X connect 12 0 10 0;
#X connect 12 1 4 1;
#X connect 15 0 4 0;
#X connect 15 1 5 0;
#X connect 15 2 8 0;
#X connect 16 0 25 0;
#X connect 17 0 16 0;
#X connect 18 0 28 0;
#X connect 19 0 18 0;
#X connect 19 1 20 1;
#X connect 20 0 21 0;
#X connect 21 0 23 0;
#X connect 21 0 22 0;
#X connect 22 0 21 1;
#X connect 23 0 19 0;
#X connect 24 0 21 1;
#X connect 25 0 27 0;
#X connect 25 0 28 1;
#X connect 25 1 20 0;
#X connect 25 2 24 0;
#X connect 25 3 19 1;
#X connect 26 0 27 1;
#X connect 26 0 28 1;
#X connect 27 0 6 0;
#X connect 28 0 26 0;
#X restore 777 634 pd union;
#X obj 104 210 s \$0-c1;
#X obj 237 145 tgl 15 0 empty empty empty 17 7 0 10 -262144 -1 -1 0
1;
#X obj 290 145 tgl 15 0 empty empty empty 17 7 0 10 -262144 -1 -1 0
1;
#X obj 335 145 tgl 15 0 empty empty empty 17 7 0 10 -262144 -1 -1 0
1;
#X obj 391 145 tgl 15 0 empty empty empty 17 7 0 10 -262144 -1 -1 0
1;
#X obj 435 145 tgl 15 0 empty empty empty 17 7 0 10 -262144 -1 -1 0
1;
#X obj 491 145 tgl 15 0 empty empty empty 17 7 0 10 -262144 -1 -1 0
1;
#X obj 538 145 tgl 15 0 empty empty empty 17 7 0 10 -262144 -1 -1 0
1;
#X obj 151 190 s \$0-c2;
#X obj 197 214 s \$0-c3;
#X obj 244 193 s \$0-c4;
#X obj 291 212 s \$0-c5;
#X obj 336 191 s \$0-c6;
#X obj 383 212 s \$0-c7;
#X obj 432 192 s \$0-c8;
#X obj 107 314 r \$0-c1;
#X obj 273 316 r \$0-c2;
#X obj 473 311 r \$0-c3;
#X obj 640 312 r \$0-c4;
#X obj 845 307 r \$0-c5;
#X obj 1013 309 r \$0-c6;
#X obj 1212 304 r \$0-c7;
#X obj 1379 304 r \$0-c8;
#X obj 222 88 tgl 15 0 \$0-ic1 empty empty 17 7 0 10 -262144 -1 -1
0 1;
#X obj 319 88 tgl 15 0 \$0-ic2 empty empty 17 7 0 10 -262144 -1 -1
0 1;
#X obj 418 88 tgl 15 0 \$0-ic3 empty empty 17 7 0 10 -262144 -1 -1
0 1;
#X obj 521 88 tgl 15 0 \$0-ic4 empty empty 17 7 0 10 -262144 -1 -1
0 1;
#X text 118 145 Complement;
#X text 75 87 Intersection Complement;
#X text 136 111 Indices;
#X obj 777 686 outlet;
#X connect 2 0 4 0;
#X connect 3 0 2 0;
#X connect 3 1 2 1;
#X connect 5 0 12 0;
#X connect 8 0 12 2;
#X connect 9 0 12 1;
#X connect 10 0 2 0;
#X connect 11 0 3 0;
#X connect 12 0 18 0;
#X connect 12 1 21 0;
#X connect 13 0 79 0;
#X connect 14 0 15 0;
#X connect 15 0 18 1;
#X connect 15 1 22 0;
#X connect 16 0 15 1;
#X connect 17 0 15 2;
#X connect 18 0 41 0;
#X connect 18 1 23 0;
#X connect 19 0 18 3;
#X connect 20 0 4 0;
#X connect 24 0 18 2;
#X connect 27 0 40 0;
#X connect 28 0 40 1;
#X connect 29 0 39 0;
#X connect 30 0 39 1;
#X connect 31 0 41 1;
#X connect 31 1 35 0;
#X connect 32 0 31 3;
#X connect 36 0 31 2;
#X connect 37 0 40 2;
#X connect 38 0 39 2;
#X connect 39 0 31 1;
#X connect 39 1 34 0;
#X connect 40 0 31 0;
#X connect 40 1 33 0;
#X connect 41 0 78 0;
#X connect 42 0 43 0;
#X connect 43 0 44 0;
#X connect 44 0 2 0;
#X connect 44 1 2 1;
#X connect 45 0 72 0;
#X connect 46 0 72 1;
#X connect 47 0 71 0;
#X connect 48 0 71 1;
#X connect 49 0 77 0;
#X connect 49 1 53 0;
#X connect 50 0 49 3;
#X connect 54 0 49 2;
#X connect 55 0 70 0;
#X connect 56 0 70 1;
#X connect 57 0 69 0;
#X connect 58 0 69 1;
#X connect 59 0 77 1;
#X connect 59 1 63 0;
#X connect 60 0 59 3;
#X connect 64 0 59 2;
#X connect 65 0 72 2;
#X connect 66 0 71 2;
#X connect 67 0 70 2;
#X connect 68 0 69 2;
#X connect 69 0 59 1;
#X connect 69 1 62 0;
#X connect 70 0 59 0;
#X connect 70 1 61 0;
#X connect 71 0 49 1;
#X connect 71 1 52 0;
#X connect 72 0 49 0;
#X connect 72 1 51 0;
#X connect 77 0 78 1;
#X connect 78 0 109 0;
#X connect 80 0 87 0;
#X connect 81 0 88 0;
#X connect 82 0 89 0;
#X connect 83 0 90 0;
#X connect 84 0 91 0;
#X connect 85 0 92 0;
#X connect 86 0 93 0;
#X connect 94 0 12 3;
#X connect 95 0 15 3;
#X connect 96 0 40 3;
#X connect 97 0 39 3;
#X connect 98 0 72 3;
#X connect 99 0 71 3;
#X connect 100 0 70 3;
#X connect 101 0 69 3;
#X coords 0 -1 1 1 500 150 1 74 36;
